<svg xmlns="http://www.w3.org/2000/svg" id="Layer_1" enable-background="new 0 0 64 64" viewBox="0 0 64 64"><path fill="#2c2e63" d="M60.4,10.9c-2,0-3.5,1.6-3.5,3.5v20h-1.7v-3.7c0-1.8-1.5-3.3-3.3-3.3h-5.8c-1.8,0-3.3,1.5-3.3,3.3v3.7h-1.7
		v-6.1c0-0.5-0.4-1-1-1H14c-2.5,0-4.5,2-4.5,4.5v2.5H7.1v-5.7c0-2-1.6-3.6-3.5-3.6c-2,0-3.6,1.6-3.6,3.6v23.3c0,0.5,0.4,1,1,1h5.2
		c0.5,0,1-0.4,1-1v-6.6h49.8v6.6c0,0.5,0.4,1,1,1H63c0.5,0,1-0.4,1-1V14.5C64,12.5,62.4,10.9,60.4,10.9z M5.2,51.1H1.9V28.8
		c0-0.9,0.7-1.6,1.6-1.6c0.9,0,1.6,0.7,1.6,1.6V51.1z M44.7,30.8c0-0.8,0.6-1.4,1.4-1.4h5.8c0.8,0,1.4,0.6,1.4,1.4v3.7h-8.5V30.8z
		 M11.4,32c0-1.4,1.1-2.6,2.6-2.6h25.2v5.1H11.4V32z M56.9,43.6H7.1v-7.1h49.8V43.6z M62.1,51.1h-3.2V14.5c0-0.9,0.7-1.6,1.6-1.6
		s1.6,0.7,1.6,1.6V51.1z"/><path fill="#f16d60" d="M53.3,30.8v3.7h-8.5v-3.7c0-0.8,0.6-1.4,1.4-1.4h5.8C52.6,29.4,53.3,30,53.3,30.8z"/><path fill="#edeced" d="M39.2,29.4v5.1H11.4V32c0-1.4,1.1-2.6,2.6-2.6H39.2z"/><path fill="#e25e5a" d="M53.3,30.8v3.7h-8.5v-1.8h6.7v-3.3h0.4C52.6,29.4,53.3,30,53.3,30.8z"/><polygon fill="#d5d6d5" points="39.2 29.4 39.2 34.5 11.4 34.5 11.4 32.7 37.3 32.7 37.3 29.4"/><path fill="#ffdb7c" d="M5.2 28.8v22.3H1.9V28.8c0-.9.7-1.6 1.6-1.6C4.5 27.2 5.2 27.9 5.2 28.8zM62.1 14.5v36.6h-3.2V14.5c0-.9.7-1.6 1.6-1.6S62.1 13.6 62.1 14.5z"/><rect width="49.8" height="7.1" x="7.1" y="36.4" fill="#b5d9e5"/><polygon fill="#9fc2d7" points="56.9 36.4 56.9 43.6 7.1 43.6 7.1 41.6 55 41.6 55 36.4"/></svg>