<svg xmlns="http://www.w3.org/2000/svg" xmlns:xlink="http://www.w3.org/1999/xlink" width="32.236000061035156" height="32" fill="#000" style=""><rect id="backgroundrect" width="100%" height="100%" x="0" y="0" fill="none" stroke="none"/><defs><linearGradient id="svg_2"><stop stop-color="#05472b" stop-opacity="1" offset="0"/><stop stop-color="#fab8d4" stop-opacity="1" offset="1"/></linearGradient><linearGradient id="svg_3"><stop stop-color="#051944" stop-opacity="1" offset="0"/><stop stop-color="#fae6bb" stop-opacity="1" offset="1"/></linearGradient></defs><metadata><rdf:RDF xmlns:rdf="http://www.w3.org/1999/02/22-rdf-syntax-ns#" xmlns:rdfs="http://www.w3.org/2000/01/rdf-schema#" xmlns:dc="http://purl.org/dc/elements/1.1/"><rdf:Description about="https://iconscout.com/legal#licenses" dc:title="house" dc:description="house" dc:publisher="Iconscout" dc:date="2017-09-25" dc:format="image/svg+xml" dc:language="en"><dc:creator><rdf:Bag><rdf:li>Elegant Themes</rdf:li></rdf:Bag></dc:creator></rdf:Description></rdf:RDF></metadata><g class="currentLayer" style=""><title>Layer 1</title><path d="M1.656 17.756L16 5.324l14.344 12.432a1.001 1.001 0 0 0 1.312-1.512l-15-13a1 1 0 0 0-1.31 0L10 7.876V6a2 2 0 0 0-4 0v5.342L.344 16.244a1.003 1.003 0 0 0-.1 1.412c.364.416.994.462 1.412.1zM12 22h8v10h6a2 2 0 0 0 2-2v-9.802c0-.6-.268-1.166-.732-1.546l-10-8.198a1.996 1.996 0 0 0-2.536 0l-10 8.198A1.993 1.993 0 0 0 4 20.198V30a2 2 0 0 0 2 2h6V22z" id="svg_1" class="selected" fill="url(#svg_3)" fill-opacity="1"/></g></svg>