<svg xmlns="http://www.w3.org/2000/svg" enable-background="new 0 0 50 50" viewBox="0 0 50 50"><path fill="#EFEFED" d="M19.3 14.1l-2.2 28.3L3.4 44.8c-1.4.3-2.6-1-2.4-2.4 6.3-25.3 5.1-26.6 7.6-26.9L19.3 14.1zM47.3 42.8l-13.9 2.6-2.3-29.7 9.8-1.3c1.1-.1 2.1.6 2.3 1.6L49 40.3C49.2 41.5 48.5 42.5 47.3 42.8z"/><polygon fill="#E4E4E3" points="33.5 45.4 17.2 42.4 19.3 14.1 31.2 15.7"/><path fill="#D75548" d="M31.9,33.2c-2,0-3.6-0.6-4.2-1.7c-0.4-0.6-0.4-1.3-0.1-2c0.7-1.4,2.7-1.9,4.3-1.9c1.6,0,3.6,0.5,4.3,1.9
			c0.3,0.6,0.3,1.4-0.1,2C35.5,32.6,33.9,33.2,31.9,33.2z M31.9,28.2c-1.4,0-3.3,0.4-3.9,1.6c-0.2,0.5-0.2,1,0.1,1.5
			c0.6,0.9,2,1.4,3.8,1.4c1.8,0,3.2-0.5,3.8-1.4c0.3-0.5,0.3-1,0.1-1.5C35.2,28.6,33.4,28.2,31.9,28.2z"/><path fill="#E9715F" d="M34.7,30.2c-0.3-0.6-1.5-1-2.8-1c-1.3,0-2.5,0.4-2.8,1c-0.4,0.7,0.8,1.5,2.8,1.5
			C33.9,31.7,35.1,30.9,34.7,30.2z"/><path fill="#FFF" d="M46.6,30C46.6,30,46.6,30,46.6,30c0,0.8-0.1,1.6-0.3,2.4c-0.5,1.4-1.6,2.6-3.1,3.4c-1.9,1-4.2,1.3-6.3,1.3
			c-0.9,0-1.9,0-2.7-0.1c-0.4,0-0.8,0-1.2-0.1c-4.9-0.3-10.2-0.7-15.1-2.2c-1.2-0.4-2.3-0.8-3.4-1.4c-1,3.4-0.9,7.2,2,9.1l-0.7,0.1
			c-4.8-3.8-0.8-10.4-1.6-12.2c-0.3-0.8-1.1-1.3-1.8-1.6c-2.1,1.2-5,0.2-8.7,3.3c0.1-0.3,0.1-0.5,0.2-0.8c3.5-2.6,6.1-2,8-2.8
			c-2.4-1.2-4.8-2.3-6.5-3.7c0,0,0,0,0,0l0.1-0.5l0,0c1.9,1.5,4.1,2.5,7,3.9c0.6-0.5,1.1-1.3,0.8-2c-0.2-0.6-1-1.1-1.4-1.8
			c-0.6-1.1,0-2.5,0.8-3.3c0.9-0.8,2-1.1,3-1.4c0.1,0,0.3,0,0.3,0.2c0.2,0.6-1.6,0.3-3,1.6c-0.7,0.6-1.2,1.8-0.7,2.6
			c0.4,0.7,1.1,1,1.4,1.8c0.3,0.9-0.1,1.8-0.8,2.4c1,0.6,1.8,1.2,2,2.3c1.1-0.2,2.3-0.4,3.4-0.8c1-0.4,1.9-0.9,2.7-1.6
			c1.7-1.7,2.2-4.2,2.6-7c0-0.1,0.2-0.2,0.3-0.2c0.1,0,0.2,0.2,0.2,0.3c-0.3,2.2-0.8,5.3-2.8,7.2c-0.9,0.8-1.9,1.4-3,1.8
			c-1.1,0.4-2.3,0.6-3.3,0.8c0,0.5-0.1,1.1-0.3,1.6c1.1,0.5,2.2,1,3.3,1.3c4.9,1.6,10.1,2,15,2.3c0.4,0,0.9,0.1,1.3,0.1
			c2.7,0.1,6.1,0.3,8.8-1.1c1.4-0.8,2.4-1.9,2.9-3.1c0.3-0.8,0.3-1.7,0.3-2.6c0-0.4,0-0.9,0.1-1.4L46.6,30z"/><path fill="#FFF" d="M25.1,23.9c3.5,0.5,7,1.1,10.4,1.6c0.6,0.1,1.3,0.2,1.7,0.6c0.3,0.2,0.5,0.6,0.7,1
			c0.1,0.2,0.2,0.3,0.3,0.5c0.8,1.1,2,1.7,2.8,2.1c1.1,0.4,2.3,0.5,3.4,0.7c0,0,0,0,0,0c0.1,0,0.2-0.1,0.2-0.2
			c0-0.1-0.1-0.3-0.2-0.3c-1.1-0.1-2.2-0.3-3.3-0.7c-0.8-0.3-1.9-0.8-2.6-1.9c-0.1-0.2-0.2-0.3-0.3-0.5c-0.2-0.4-0.4-0.8-0.8-1.1
			c-0.6-0.5-1.4-0.6-2-0.7c-3.5-0.5-7-1.1-10.4-1.6c-0.1,0-0.3,0.1-0.3,0.2C24.9,23.8,25,23.9,25.1,23.9z"/><path fill="#D75548" d="M31,4.7c-3.7,0.4-6.8,3.4-7.3,7.1c-0.5,3.9,1.6,7.3,4.8,8.8l3.1,6c0.1,0.3,0.6,0.3,0.7,0l3.1-6
			c2.9-1.3,4.9-4.2,4.9-7.6C40.3,8,36,4.1,31,4.7z"/><circle cx="31.9" cy="12.9" r="4.9" fill="#FFF"/><path fill="#FFF" d="M15.8,33.1c0,2-3,2-3,0C12.8,31.1,15.8,31.1,15.8,33.1z"/><path fill="#C7C7C7" d="M15,33.1c0,1-1.5,1-1.5,0C13.5,32.1,15,32.1,15,33.1z"/><path fill="#FFF" d="M14.3,28.3c0,2.6-4,2.6-4,0C10.3,25.7,14.3,25.7,14.3,28.3z"/><path fill="#C7C7C7" d="M11.1,28.3c0,1.5,2.3,1.5,2.3,0C13.4,26.8,11.1,26.8,11.1,28.3z"/></svg>