<?xml version="1.0"?>
<!DOCTYPE svg PUBLIC "-//W3C//DTD SVG 1.1//EN" "http://www.w3.org/Graphics/SVG/1.1/DTD/svg11.dtd">
<svg xmlns="http://www.w3.org/2000/svg" xmlns:xlink="http://www.w3.org/1999/xlink" enable-background="new 0 0 512 512" height="512px" id="Layer_1" version="1.1" viewBox="0 0 512 512" width="512px" xml:space="preserve"><path d="M433.672,434.073c-15.245,2.442-30.129,6.568-45.187,9.928c-6.733,1.502-13.728,1.979-20.52,3.259  c-3.974,0.758-8.105,2.16-12.225,2.724c1.258-0.397,2.398-0.744,3.18-1.048c5.273-2.03,10.766-3.402,16.169-5.007  c8.888-2.645,18.251-3.952,26.126-9.197c2.183-1.446,1.634-5.701-1.459-5.383c-8.873,0.925-17.934,2.124-26.748,3.662  c-9.883,1.721-19.493,4.711-29.362,6.503c-1.3,0.238-2.615,0.484-3.916,0.716c6.112-1.734,12.239-3.511,18.222-5.65  c2.991-1.069,8.309-2.441,7.615-6.575c-0.217-1.228-1.618-2.152-2.789-2.124c-9.885,0.282-19.551,3.143-29.306,4.595  c-4.941,0.737-9.912,1.417-14.869,2.154c1.199-0.622,2.212-1.395,2.746-2.399c0.925-1.734-0.188-4.609-2.485-4.35  c-20.838,2.385-41.387,6.401-61.862,10.722c2.631-1.235,5.086-2.737,7.27-4.638c1.949-1.69,0.346-4.942-2.053-4.927  c-9.58,0.058-19.306,2.065-28.843,3.092c-10.866,1.185-21.661,3.027-32.354,5.303c-3.728,0.788-7.47,1.51-11.213,2.211  c3.988-1.221,7.961-2.472,11.921-3.771c3.584-1.186,2.11-6.222-1.531-5.571c-8.222,1.452-16.633,1.863-24.884,3.179  c-8.771,1.395-17.326,4.082-25.967,6.062c-2.384,0.541-4.769,1.076-7.153,1.611c5.939-1.943,11.834-4.024,17.47-6.735  c2.587-1.241,1.33-5.526-1.473-5.381c-5.81,0.295-11.301,2.325-16.937,3.575c-6.185,1.352-12.326,2.609-18.438,4.184  c0.174-1.561-0.737-3.222-2.759-3.136c-7.645,0.332-15.837,2.818-23.063,5.216c-6.357,2.118-14.074,2.964-19.435,7.189  c-1.676,1.322-0.708,4.43,1.271,4.827c4.118,0.823,8.02-0.606,11.95-1.698c6.85-1.907,14.075-3.157,21.112-4.263  c0.997-0.159,1.98-0.34,2.962-0.521c-2.385,0.86-4.784,1.698-7.197,2.457c-4.175,1.308-8.366,2.282-12.166,4.522  c-1.691,0.99-2.082,4.104,0,4.992c5.809,2.465,11.964-0.636,17.644-2.622c9.277-3.258,19.811-4.798,29.435-6.958  c5.318-1.199,10.621-2.471,15.924-3.728c-8.93,2.789-17.789,5.751-26.488,9.183c-2.847,1.12-2.73,5.802,0.766,5.679  c4.769-0.188,9.278-1.257,13.815-2.717c5.433-1.748,10.708-3.149,16.314-4.364c11.07-2.405,22.138-4.739,33.309-6.574  c11.748-1.922,23.279-4.682,35.128-6.127c5.043-0.629,10.102-1.322,15.159-1.914c-0.332,0.071-0.679,0.151-0.998,0.217  c-6.285,1.147-12.412,3.092-18.727,4.241c-5.549,1.011-11.272,3.756-16.632,5.548c-5.087,1.698-10.563,2.493-15.26,5.145  c-3.021,1.705-0.853,5.816,2.226,5.281c27.99-4.848,55.59-11.689,83.479-17.015c-5.708,1.524-11.416,3.078-16.993,4.964  c-2.977,1.004-5.911,2.095-8.873,3.164c-5.216,1.033-10.418,2.29-14.754,4.762c-2.904,1.662-0.925,6.033,2.225,5.282  c5.015-1.2,9.87-2.891,14.696-4.646c3.743-0.7,7.485-1.286,10.809-2.152c10.664-2.789,21.415-5.21,32.282-7.067  c10.245-1.755,20.347-3.852,30.664-5.288c0.317-0.044,0.636-0.102,0.953-0.145c-14.696,4.154-29.074,8.901-43.553,13.728  c-2.197,0.729-3.093,4.104-0.693,5.281c4.393,2.146,11.892-1.264,16.256-2.355c10.766-2.688,21.704-4.486,32.615-6.467  c10.39-1.886,20.663-4.161,30.952-6.256c-5.174,1.734-10.434,3.129-15.563,5.173c-2.847,1.127-6.214,1.72-8.207,4.204  c-1.446,1.814-0.854,3.967,1.271,4.834c5.435,2.226,11.011,1.337,16.561,0c8.526-2.051,17.124-3.424,25.822-4.516  c7.615-0.968,15.26-3.439,22.717-5.224c8.425-2.016,16.877-3.915,25.433-5.281C438.874,439.066,437.313,433.496,433.672,434.073z" fill="#B3B3B3"/><g><g><path d="M115.418,118.92c-7.818,11.207-11.532,25.202-15.78,37.99c-4.523,13.547-10.086,26.502-10.924,40.931    c-0.102,1.72,2.557,1.706,2.644,0c0.825-14.146,6.401-26.95,10.824-40.229c4.205-12.586,7.832-26.335,15.533-37.354    C118.684,118.856,116.386,117.533,115.418,118.92z" fill="#1F8AFF"/><path d="M133.798,103.683c-0.432,12.254-6.3,24.861-9.97,36.458c-4.061,12.825-9.971,24.999-14.711,37.571    c-4.479,11.907-5.867,24.24-8.324,36.646c-1.199,6.019-2.832,11.561-5.144,17.24c-2.167,5.361-2.673,11.755-5.043,16.95    c-0.521,0.347-0.824,1.003-0.391,1.69c0.043,0.08,0.087,0.152,0.145,0.225c0.477,0.794,1.821,0.932,2.283,0    c2.052-4.147,2.471-9.198,3.844-13.612c2.096-6.676,4.898-12.702,6.416-19.616c2.861-13.056,4.191-26.206,8.771-38.813    c4.885-13.424,11.127-26.271,15.448-39.904c3.541-11.178,8.916-23.012,9.336-34.833    C136.516,101.963,133.857,101.978,133.798,103.683z" fill="#1F8AFF"/><path d="M124.521,191.215c-0.606,7.225-3.396,14.747-5.534,21.625c-2.486,8.049-4.335,16.278-6.358,24.443    c-3.526,14.233-14.147,25.179-15.968,40.142c-0.202,1.698,2.456,1.677,2.659,0c1.849-15.224,12.774-26.949,16.401-41.573    c2.038-8.214,4.017-16.437,6.517-24.515c2.008-6.524,4.364-13.272,4.928-20.122C127.311,189.51,124.652,189.518,124.521,191.215z" fill="#1F8AFF"/><path d="M139.492,202.219c-3.699,4.256-5.174,9.292-6.532,14.682c-2.195,8.873-5.086,17.543-7.701,26.299    c-4.726,15.78-13.525,30.686-14.003,47.483c-0.058,1.712,2.601,1.705,2.659,0c0.449-15.982,9.061-29.319,13.194-44.333    c2.037-7.398,4.537-14.659,6.661-22.037c1.995-6.878,2.747-14.623,7.601-20.23C142.483,202.805,140.62,200.919,139.492,202.219z" fill="#1F8AFF"/><path d="M149.723,204.474c-0.665,17.933-6.228,35.36-8.944,52.981c-1.243,8.057-5.535,15.108-6.777,23.266    c-0.462,2.969-1.518,6.234-1.532,9.219c0,1.351,0.434,6.871-0.664,7.557c-1.446,0.903-0.116,3.201,1.343,2.291    c2.616-1.633,1.951-7.269,1.979-9.848c0.087-9.436,4.119-18.547,7.27-27.203c1.574-4.335,1.69-9.277,2.659-13.8    c1.126-5.295,2.485-10.541,3.54-15.866c1.026-5.123,1.156-10.296,2.008-15.447c0.737-4.393,1.604-8.685,1.763-13.15    C152.425,202.761,149.781,202.776,149.723,204.474z" fill="#1F8AFF"/><path d="M170.937,187.234c-1.128,10.838-4.552,22.073-7.312,32.607c-2.832,10.772-5.129,21.697-7.615,32.555    c-2.644,11.539-1.777,23.54-4.089,35.122c-2.009,10.087-3.107,20.751-3.526,31.018c-0.072,1.719,2.586,1.705,2.644,0    c0.462-10.896,1.807-22.122,3.944-32.802c2.298-11.561,1.475-23.445,4.12-35.02c2.485-10.809,4.84-21.639,7.658-32.375    c2.63-10.08,5.751-20.736,6.835-31.104C173.768,185.529,171.109,185.551,170.937,187.234z" fill="#1F8AFF"/><path d="M212.062,105.005c-0.087,1.995-1.242,2.5-1.33,3.981c-0.173,2.738-0.722,5.317-1.142,8.005    c-0.75,4.696-1.069,9.479-1.907,14.19c-1.878,10.563-5.101,20.765-8.584,30.894c-3.15,9.162-6.459,18.273-9.551,27.456    c-3.367,10.043-4.378,21.185-5.968,31.618c-3.208,21.141-8.728,41.919-12.918,62.888c-3.975,19.789-9.321,39.657-11.662,59.7    c-0.188,1.698,2.456,1.677,2.644,0c2.399-20.628,7.991-41.117,12.066-61.485c4.364-21.783,9.841-43.292,13.165-65.272    c1.488-9.739,2.889-19.731,6.025-29.11c3.352-9.949,6.979-19.804,10.346-29.738c3.455-10.145,6.084-20.455,7.804-31.025    c0.723-4.465,0.939-9.023,1.82-13.46c0.564-2.89,1.734-5.693,1.835-8.642C214.764,103.293,212.12,103.3,212.062,105.005z" fill="#1F8AFF"/><path d="M227.971,110.309c-0.029,9.227-2.745,17.542-4.523,26.523c-1.965,9.949-3.265,20.014-5.201,29.977    c-3.945,20.238-7.168,40.779-10.116,61.19c-0.635,4.393-2.341,8.757-2.962,13.265c-0.751,5.564-2.152,10.838-3.568,16.264    c-2.76,10.513-5.478,21.033-8.281,31.538c-2.76,10.36-6.127,20.476-9.089,30.75c-1.402,4.826-2.399,9.753-3.251,14.696    c-0.694,4.046-2.038,7.767-2.08,11.878c-0.03,1.712,2.629,1.712,2.644,0c0.058-4.256,1.677-9.342,2.414-13.627    c0.852-4.964,2.139-9.848,3.541-14.688c2.947-10.252,6.271-20.354,9.017-30.699c2.803-10.506,5.505-21.04,8.28-31.56    c1.214-4.625,2.298-9.11,2.948-13.843c0.723-5.383,2.543-10.469,3.309-15.765c2.948-20.411,6.286-40.931,10.245-61.168    c1.922-9.898,3.208-19.913,5.173-29.812c1.69-8.569,4.133-16.104,4.147-24.919C230.63,108.596,227.971,108.596,227.971,110.309z" fill="#1F8AFF"/><path d="M250.514,118.271c-0.029,23.576-7.731,45.106-13.944,67.533c-2.833,10.159-3.02,19.646-3.583,30.057    c-0.635,11.929-1.951,23.612-4.307,35.345c-2.24,11.243-6.227,21.56-9.551,32.499c-3.482,11.423-5.043,23.633-7.514,35.323    c-2.413,11.452-4.306,23.02-6.662,34.485c-1.185,5.781-1.531,13.316-3.887,18.691c-1.373,3.107-2.066,6.611-2.269,9.993    c-0.115,1.712,2.543,1.705,2.645,0c0.274-4.509,2.312-8.396,3.006-12.789c0.925-5.945,2.37-11.819,3.583-17.724    c2.485-12.188,4.479-24.478,7.152-36.631c2.399-10.945,3.901-22.131,7.168-32.853c1.633-5.325,3.597-10.563,5.491-15.794    c2.269-6.214,3.107-13.005,4.393-19.464c4.307-21.574,1.835-43.741,8.193-64.968c6.301-20.967,12.716-41.595,12.745-63.704    C253.172,116.558,250.514,116.558,250.514,118.271z" fill="#1F8AFF"/><path d="M267.811,136.485c-0.462,3.201-4.031,6.618-4.031,9.638c0,4.581-0.202,8.909-0.795,13.467    c-0.736,5.751-1.358,11.546-2.369,17.247c-0.998,5.578-3.411,10.671-4.205,16.343c-3.165,22.666-3.57,46.335-10.159,68.378    c-3.223,10.838-6.835,21.408-9.653,32.391c-2.947,11.495-5.028,23.207-7.355,34.832c-2.183,10.968-4.494,21.835-6.242,32.882    c-1.619,10.26-4.321,20.787-4.321,31.147c0,1.713,2.66,1.713,2.66,0c0-4.719,0.779-11.899,1.762-16.495    c1.157-5.389,1.966-10.867,2.833-16.313c1.748-11.07,4.161-21.951,6.357-32.94c2.342-11.683,4.552-23.387,7.514-34.933    c2.775-10.889,6.474-21.358,9.683-32.102c6.546-21.957,6.676-46.045,9.826-68.631c0.766-5.52,3.28-10.628,4.263-16.127    c0.794-4.451,1.271-8.988,1.792-13.482c0.534-4.841,1.055-9.031,1.055-13.93c0-3.699,3.41-6.922,3.944-10.671    C270.6,135.517,268.042,134.794,267.811,136.485z" fill="#1F8AFF"/><path d="M286.322,155.4c0,10.917-0.188,21.386-2.038,32.195c-1.907,11.199-3.888,22.369-5.578,33.611    c-1.777,11.82-4.393,23.474-6.098,35.309c-1.661,11.647-2.774,23.28-5.216,34.818c-4.567,21.581-11.648,42.549-16.821,63.985    c-2.601,10.708-3.67,21.784-5.708,32.607c-1.72,9.197-6.417,17.42-7.414,26.755c-0.115,0.18-0.202,0.404-0.202,0.679v1.322    c0,1.72,2.587,1.705,2.659,0c0.462-10.562,6.025-20.05,7.948-30.353c2.052-10.903,3.251-21.958,5.866-32.76    c5.347-22.21,12.687-43.893,17.226-66.318c2.167-10.772,3.034-21.719,4.595-32.593c1.689-11.798,4.321-23.445,6.099-35.244    c1.676-11.185,3.698-22.311,5.606-33.459c1.734-10.18,1.734-20.259,1.734-30.555C288.981,153.695,286.322,153.695,286.322,155.4z" fill="#1F8AFF"/><path d="M306.221,171.317c0,11.524-0.102,23.026-1.72,34.464c-1.547,10.765-4.09,21.314-5.376,32.152    c-2.731,23.055-6.777,46.046-13.641,68.255c-3.237,10.491-7.761,20.83-10.246,31.517c-2.515,10.766-1.721,21.957-3.815,32.751    c-1.878,9.747-3.02,19.602-5.592,29.211c-2.515,9.407-2.355,19.104-4.652,28.598c-0.405,1.669,2.152,2.369,2.558,0.716    c2.139-8.844,1.936-17.963,4.132-26.697c2.442-9.639,4.032-19.35,5.751-29.146c1.879-10.736,1.864-21.69,3.714-32.456    c1.979-11.451,7.212-22.701,10.709-33.784c6.777-21.487,10.924-44.051,13.453-66.42c1.373-12.304,4.162-24.254,5.91-36.48    c1.546-10.802,1.459-21.784,1.475-32.679C308.88,169.612,306.221,169.612,306.221,171.317z" fill="#1F8AFF"/><path d="M328.763,189.886c-0.13,10.794-1.763,21.394-3.772,31.979c-1.748,9.183-4.71,18.157-6.228,27.376    c-0.606,3.67-0.577,7.456-0.606,11.169c-0.043,5.354-1.475,10.744-2.572,15.968c-2.153,10.101-4.522,20.122-5.91,30.374    c-1.258,9.204-1.243,18.287-3.338,27.405c-2.283,9.992-6.547,19.413-9.71,29.125c-5.693,17.483-12.558,36.176-12.948,54.729    c-0.043,1.705,2.616,1.705,2.645,0c0.405-19.038,7.773-38.387,13.612-56.335c2.934-8.987,6.661-17.629,8.973-26.805    c2.472-9.848,2.298-19.854,3.656-29.839c1.271-9.423,3.569-18.685,5.578-27.954c0.997-4.609,1.878-9.241,2.616-13.894    c0.809-4.973,0.071-10.188,0.895-15.253c1.532-9.342,4.581-18.518,6.359-27.845c1.906-9.985,3.294-20.029,3.41-30.202    C331.436,188.174,328.792,188.174,328.763,189.886z" fill="#1F8AFF"/><path d="M347.331,211.106c0,33.987-7.889,66.826-14.06,100.09c-0.737,4.002-1.85,7.933-2.948,11.842    c-0.867,3.077-2.774,6.906-2.876,10.093c-0.26,7.385-0.838,15.938-2.615,23.077c-1.807,7.175-5.115,14.118-7.601,21.098    c-2.631,7.398-3.049,14.363-3.049,22.139c0,1.711,2.644,1.711,2.644,0c0-8.31,0.896-15.615,3.686-23.476    c2.529-7.065,5.606-13.98,7.427-21.271c1.532-6.127,1.504-13.063,2.081-19.371c0.867-9.53,5.159-18.85,6.662-28.372    c2.484-15.838,6.271-31.408,9.089-47.188c2.891-16.264,4.219-32.152,4.219-48.662    C349.989,209.401,347.331,209.401,347.331,211.106z" fill="#1F8AFF"/><path d="M371.218,229.675c0-1.713-2.645-1.706-2.659,0c-0.274,25.02-7.485,49.506-12.991,73.717    c-2.397,10.49-3.728,20.968-7.514,31.126c-1.705,4.609-1.17,10.202-2.471,15.042c-1.721,6.373-3.208,12.695-6.025,18.707    c-0.724,1.546,1.56,2.89,2.298,1.343c4.276-9.175,7.903-20.461,8.222-30.562c0.173-5.607,2.86-11.806,4.595-17.123    c1.864-5.665,2.226-11.98,3.454-17.825c5.028-24.153,12.484-48.025,13.034-72.887c0.015-0.065,0.058-0.123,0.058-0.209V229.675z" fill="#1F8AFF"/><path d="M386.188,243.331c-3.698,3.106-1.431,9.486-1.993,13.619c-1.199,8.837-5.015,18.2-5.029,27.109    c-0.014,11.372-2.037,22.015-4.263,33.127c-0.81,4.024-0.997,7.543-1.142,11.633c-0.173,4.652-1.734,8.763-2.5,13.243    c-0.289,1.669,2.27,2.384,2.558,0.701c1.055-6.171,2.616-11.677,2.688-18.05c0.131-9.724,3.988-19.435,4.985-29.131    c0.535-5.166,0.102-10.324,0.982-15.462c0.752-4.406,1.749-8.786,2.63-13.164c0.766-3.742,2.183-8.251,2.023-12.081    c-0.101-2.594-1.401-7.708,0.94-9.674C389.382,244.104,387.488,242.232,386.188,243.331z" fill="#1F8AFF"/><path d="M393.761,265.481c0,12.16-0.81,24.161-3.758,35.989c-1.099,4.4-2.442,8.207-2.775,12.759    c-0.433,5.99-2.383,11.59-2.745,17.564c-0.115,1.72,2.544,1.705,2.645,0c0.333-5.454,2.602-10.173,2.688-15.605    c0.086-6.604,2.658-12.37,3.742-18.785c1.836-10.83,2.847-20.917,2.847-31.922C396.404,263.777,393.761,263.777,393.761,265.481z" fill="#1F8AFF"/><path d="M168.277,103.683c-0.751,11.618-9.927,20.39-10.606,31.827c-0.101,1.712,2.558,1.705,2.659,0    c0.39-6.741,4.523-10.888,6.589-16.885c1.661-4.892,3.685-9.747,4.017-14.941C171.052,101.97,168.393,101.985,168.277,103.683z" fill="#1F8AFF"/><path d="M178.899,105.005c-1.027,13.41-11.156,24.999-11.937,38.467c-0.102,1.705,2.558,1.698,2.659,0    c0.766-13.359,10.911-25.064,11.922-38.467C181.673,103.293,179.028,103.307,178.899,105.005z" fill="#1F8AFF"/><path d="M196.181,104.651c-0.362,1.922-1.373,3.201-2.24,4.863c-0.838,1.626-0.954,4.082-1.46,5.852    c-1.473,5.13-3.25,11.17-5.664,15.866c-1.821,3.555-3.368,7.125-4.437,10.976c-0.838,2.969,0.563,10.289-1.763,12.261    c-1.316,1.098,0.578,2.97,1.864,1.879c1.922-1.626,2.254-3.432,1.922-5.91c-0.882-6.301,1.95-12.391,4.696-17.868    c2.08-4.111,3.048-8.518,4.667-12.846c0.953-2.544,1.719-5.086,2.327-7.731c0.562-2.463,2.181-4.176,2.659-6.632    C199.057,103.683,196.498,102.975,196.181,104.651z" fill="#1F8AFF"/></g><g><path d="M148.899,211.453c-17.731,0-36.92-9.501-39.854-30.721c-2.948-21.271,11.675-42.224,32.6-46.703    c0.462-0.102,0.925-0.152,1.343-0.152c2.24,0,3.599,1.293,4.351,2.377l0.809,1.17l1.387,0.253    c19.609,3.692,32.6,16.235,34.752,33.532c2.081,16.56-8.193,36.4-26.805,39.529C154.666,211.214,151.775,211.453,148.899,211.453    L148.899,211.453z M137.065,147.15c-10.578,5.361-20.549,17.773-17.427,32.383c2.716,12.774,14.189,21.704,27.89,21.704    c3.077,0,6.141-0.469,9.074-1.408c12.515-3.974,19.854-16.929,16.72-29.5c-3.453-13.786-14.567-21.885-31.329-22.788    c-0.679-0.037-1.301-0.188-2.038-0.491l-1.458-0.614L137.065,147.15z" fill="#0077BF"/><path d="M264.415,436.082c-13.107,0-26.574-5.145-40.042-15.281l-0.593-0.447l-0.737-0.167    c-0.896-0.195-1.734-0.679-2.485-1.431l-67.714-67.714c-6.864-6.864-13.569-14.603-20.042-22.08    c-13.266-15.317-26.863-31.054-43.727-41.984c-2.746-1.785-2.673-4.329-2.37-5.693l0.231-1.092l-0.462-1.025    c-17.846-40.063-20.389-89.36-19.393-123.665c0.073-1.958,0.882-3.411,2.442-4.335l1.257-0.751l0.333-1.416    c0.159-0.65,0.462-1.271,0.925-1.886c15.895-21.293,34.435-37.853,53.625-47.91c0.897-0.463,1.778-0.694,2.645-0.694    c0.231,0,0.462,0.014,0.693,0.043l1.388,0.209l1.141-0.846c0.838-0.614,1.864-0.954,3.049-1.004    c9.422-0.383,17.947-0.563,26.054-0.563c32.339,0,59.448,3.143,82.873,9.609c0.202,0.094,0.347,0.152,0.505,0.209l0.564,0.188    l0.579-0.007c1.416,0,2.774,0.975,5.36,3.042c30.288,24.377,57.787,52.071,84.405,78.848    c18.872,19.009,36.616,36.877,55.373,53.762l0.838,0.766l1.127,0.102c1.445,0.159,2.528,0.976,3.323,2.536    c14.855,29.203,16.619,53.56,5.42,74.439l-0.709,1.294l0.448,1.395c0.521,1.604,0,3.207-1.574,4.898    c-31.17,33.387-55.013,55.742-91.341,89.454c-0.521,0.484-0.866,0.976-1.112,1.336l-0.174,0.253    c-0.65,0.867-0.982,1.193-1.345,1.468C291.582,430.656,277.854,436.082,264.415,436.082L264.415,436.082z M131.285,108.437    c-18.064,9.494-35.635,24.927-49.493,43.466c-0.578,0.773-1.228,1.33-2.052,1.749l-1.82,0.925l-0.058,2.052    c-1.33,49.796,4.667,88.442,18.308,118.153c0.376,0.838,0.563,1.719,0.549,2.63l-0.043,1.828l1.488,1.055    c13.917,9.941,25.49,23.092,36.689,35.808c6.056,6.893,12.283,13.974,18.901,20.584l74.94,74.933l0.794,0.245    c0.794,0.261,1.402,0.571,1.979,1.026c10.925,8.446,21.965,12.724,32.845,12.724c10.881,0,21.864-4.285,32.629-12.738    c0.159-0.087,0.29-0.159,0.405-0.246l0.13-0.086l0.261-0.217l10.896-11.243c26.834-27.701,49.983-51.602,77.092-76.059l0.867-0.78    l0.202-1.17c0.13-0.701,0.419-1.388,0.896-2.067c17.08-24.998,8.265-50.2,0.13-66.983l-0.448-0.939l-0.896-0.534    c-0.332-0.195-0.68-0.383-0.998-0.65c-37.483-30.642-73.393-66.247-108.131-100.689c-11.186-11.083-22.746-22.542-34.349-33.828    l-0.737-0.723l-1.011-0.202l-0.535-0.08c-22.903-6.307-48.25-9.241-79.838-9.241c-8.122,0-16.806,0.188-26.588,0.593l-1.619-0.123    l-0.896,0.513C131.602,108.213,131.444,108.322,131.285,108.437L131.285,108.437z" fill="#0077BF"/><path d="M168.595,176.628c-2.615,0-4.089-0.376-5.13-1.308l-1.025-0.925l-1.72,1.459l-0.014-0.65    c-0.058-0.008-0.29-0.051-0.738-0.167c-1.155-0.397-2.34-1.105-3.367-2.052c-6.733-4.754-12.615-16.517-14.32-24.753    c-0.838-4.133-0.622-9.002-0.405-13.706c0.102-2.182,0.203-4.321,0.203-6.373c0-1.662-0.058-3.375-0.13-5.108    c-0.159-4.552-0.333-9.176,0.621-13.157c1.431-5.989,5.578-20.642,13.106-27.296c8.482-7.507,18.843-10.932,29.825-14.566    l1.17-0.39c6.835-2.261,14.205-3.461,21.328-3.461c5,0,9.711,0.593,14.018,1.763c2.095,0.563,4.132,1.091,6.127,1.604l0.62,0.167    c10.144,2.623,18.901,4.884,28.41,9.862c9.666,5.058,18.843,10.556,28.163,16.213l2.616,1.589l1.878-2.399    c8.223-10.426,16.733-17.672,26.777-22.816c13.033-6.669,28.092-9.776,39.752-11.734c4.292-0.723,8.469-1.077,12.745-1.077    c10.462,0,20.448,2.16,30.577,4.574c18.728,4.443,37.282,19.956,36.56,41.002c-1.142,33.46-29.421,42.723-46.184,45.266    c-3.006,0.448-6.185,0.679-9.436,0.679c-19.465,0-43.655-8.345-64.709-22.318c-4.941-3.28-9.695-6.95-14.291-10.498    c-2.745-2.131-5.506-4.263-8.323-6.329l-2.934-2.146l-1.994,3.013c-2.239,3.396-4.436,6.865-6.647,10.354    c-1.69,2.702-3.41,5.412-5.159,8.107c-0.909,1.395-2.152,2.109-3.685,2.109c-1.863,0-3.815-1.105-4.639-2.637    c-0.635-1.163-0.52-2.392,0.362-3.743c1.979-3.049,3.9-6.098,5.809-9.125c2.152-3.417,4.291-6.799,6.473-10.115l1.909-2.912    l-7.429-4.812c-11.632-7.586-24.797-16.199-37.831-19.276l-2.037-0.492c-9.119-2.174-19.451-4.638-29.538-4.638    c-6.545,0-12.254,1.019-17.441,3.106c-2.051,0.824-4.378,1.554-6.864,2.327c-5.404,1.69-10.852,3.389-15.057,6.409    c-6.185,4.458-8.945,10.657-11.604,16.654l-0.954,2.117c-5.592,12.348-5.448,37.824,0.289,49.572    c3.626,7.406,6.979,9.617,13.091,13.193c0.955,0.563,1.373,0.838,1.532,0.954l1.184,0.917l1.922-2.161l0.318,1.034    c0,0,0.274-0.029,0.723-0.029c4.046,0,4.263,3.75,4.263,4.508c0,0.751-0.217,4.508-4.263,4.508c-0.752,0-1.532,0.021-2.327,0.058    C170.054,176.599,169.333,176.628,168.595,176.628L168.595,176.628z M370.972,65.772c-10.938,0-24.104,2.637-40.229,8.063    c-12.514,4.205-22.846,11.604-32.527,23.294l-2.428,2.919l3.15,2.131c3.873,2.63,7.629,5.592,11.271,8.468    c5.434,4.299,11.055,8.728,17.384,12.347c5.564,3.172,24.898,13.663,40.114,15.31c5.376,0.578,10.115,0.86,14.509,0.86    c17.384,0,30.012-4.574,37.541-13.612c5.621-6.727,8.844-18.851,7.485-28.178c-0.911-6.322-3.758-11.228-8.208-14.205    c-1.734-1.156-3.381-2.392-4.956-3.591c-3.021-2.283-6.098-4.609-10.015-6.575c-7.977-3.988-20.071-5.997-24.911-6.683    C376.593,65.953,373.848,65.772,370.972,65.772L370.972,65.772z" fill="#0077BF"/></g></g>
	<metadata>
		<rdf:RDF xmlns:rdf="http://www.w3.org/1999/02/22-rdf-syntax-ns#" xmlns:rdfs="http://www.w3.org/2000/01/rdf-schema#" xmlns:dc="http://purl.org/dc/elements/1.1/">
			<rdf:Description about="https://iconscout.com/legal#licenses" dc:title="374622,price,sketch,sketchy,tag" dc:description="374622,price,sketch,sketchy,tag" dc:publisher="Iconscout" dc:date="2017-02-09" dc:format="image/svg+xml" dc:language="en">
				<dc:creator>
					<rdf:Bag>
						<rdf:li>Iconscout Store</rdf:li>
					</rdf:Bag>
				</dc:creator>
			</rdf:Description>
		</rdf:RDF>
    </metadata></svg>
