<svg xmlns="http://www.w3.org/2000/svg" viewBox="0 0 48 48"><path fill="#f22e62" d="M12.11 9.84l-1-1.73.86-.5a14.67 14.67 0 0 1 1.65-.79l.93-.37.74 1.86-.93.37A9.88 9.88 0 0 0 13 9.35zM8 19H6V18a11.77 11.77 0 0 1 2.5-7.32l.62-.79 1.57 1.23-.61.78A9.85 9.85 0 0 0 8 18z"/><path fill="#192340" d="M45.71,39.29l-7.5-7.5a4.56,4.56,0,0,0-5.63-.62L30,28.57A16.06,16.06,0,1,0,28.57,30l2.6,2.6a4.56,4.56,0,0,0,.62,5.63l7.5,7.5a1,1,0,0,0,1.42,0l5-5A1,1,0,0,0,45.71,39.29ZM4,18A14,14,0,1,1,18,32,14,14,0,0,1,4,18ZM40,43.59l-6.79-6.8a2.53,2.53,0,1,1,3.58-3.58L43.59,40Z"/></svg>