<?xml version="1.0" encoding="UTF-8"?><svg xmlns="http://www.w3.org/2000/svg" xmlns:xlink="http://www.w3.org/1999/xlink" version="1.1" id="Layer_1" x="0px" y="0px" viewBox="0 0 48 40" xml:space="preserve"><path fill="#39C" d="M16 0l4 2v2l4 2v2l4 2v2l4 2v2l4 2v2l4 2v2l4 2v2l4 2v2l-16 8-4-2v-2l-4-2v-2l-4-2v-2l-4-2v-2l-4-2v-2l-4-2v-2l-4-2v-2l-4-2V8z"/><path opacity="0.29" d="M48 30l-16 8v2l16-8z"/><path opacity="0.29" d="M44 26l-16 8v2l16-8z"/><path opacity="0.29" d="M40 22l-16 8v2l16-8z"/><path opacity="0.29" d="M36 18l-16 8v2l16-8z"/><path opacity="0.29" d="M32 14l-16 8v2l16-8z"/><path opacity="0.29" d="M28 10l-16 8v2l16-8z"/><path opacity="0.29" d="M24 6L8 14v2l16-8z"/><path opacity="0.29" d="M20 2L4 10v2l16-8z"/><path opacity="0.11" d="M28 36v2l4 2v-2l-4-2zm-8-8v2l4 2v-2l-4-2zm-4-4v2l4 2v-2l-4-2zm8 8v2l4 2v-2l-4-2zM0 8v2l4 2v-2L0 8zm8 6l-4-2v2l4 2v-2zm4 6v2l4 2v-2l-4-2zm-4-4v2l4 2v-2l-4-2z"/><metadata><rdf:RDF xmlns:rdf="http://www.w3.org/1999/02/22-rdf-syntax-ns#" xmlns:rdfs="http://www.w3.org/2000/01/rdf-schema#" xmlns:dc="http://purl.org/dc/elements/1.1/"><rdf:Description about="https://iconscout.com/legal#licenses" dc:title="stairs" dc:description="stairs" dc:publisher="Iconscout" dc:date="2017-09-20" dc:format="image/svg+xml" dc:language="en"><dc:creator><rdf:Bag><rdf:li>Icograms</rdf:li></rdf:Bag></dc:creator></rdf:Description></rdf:RDF></metadata></svg>